<svg xmlns="http://www.w3.org/2000/svg" xmlns:xlink="http://www.w3.org/1999/xlink" width="2000" zoomAndPan="magnify" viewBox="0 0 1500 457.91998" height="600" preserveAspectRatio="xMidYMid meet" version="1.0"><defs><g/><clipPath id="3fd26e339b"><path d="M 0.132812 0 L 1499.867188 0 L 1499.867188 414 L 0.132812 414 Z M 0.132812 0 " clip-rule="nonzero"/></clipPath><clipPath id="ab12c88633"><rect x="0" width="1500" y="0" height="414"/></clipPath><clipPath id="c24e4f5df5"><rect x="0" width="784" y="0" height="82"/></clipPath></defs><g clip-path="url(#3fd26e339b)"><g><g clip-path="url(#ab12c88633)"><g fill="#12222e" fill-opacity="1"><g transform="translate(0.131037, 279.948162)"><g><path d="M 30.0625 0 L 30.0625 -206.8125 L 164.734375 -206.8125 L 164.734375 -182.765625 L 55.90625 -182.765625 L 55.90625 -116.328125 L 150.296875 -116.328125 L 150.296875 -92.28125 L 55.90625 -92.28125 L 55.90625 -24.046875 L 164.734375 -24.046875 L 164.734375 0 Z M 30.0625 0 "/></g></g></g><g fill="#12222e" fill-opacity="1"><g transform="translate(181.691658, 279.948162)"><g><path d="M 165.328125 0 L 56.21875 -158.125 L 55.015625 -158.125 L 55.015625 0 L 30.0625 0 L 30.0625 -206.8125 L 56.515625 -206.8125 L 164.125 -52.3125 L 165.328125 -52.3125 L 165.328125 -206.8125 L 189.984375 -206.8125 L 189.984375 0 Z M 165.328125 0 "/></g></g></g><g fill="#12222e" fill-opacity="1"><g transform="translate(401.728703, 279.948162)"><g><path d="M 105.21875 -88.375 L 105.21875 -112.125 L 176.765625 -112.125 L 176.765625 -3.609375 C 166.941406 -1.804688 155.863281 -0.351562 143.53125 0.75 C 131.207031 1.851562 120.335938 2.40625 110.921875 2.40625 C 85.671875 2.40625 66.984375 -0.347656 54.859375 -5.859375 C 42.734375 -11.367188 34.414062 -21.390625 29.90625 -35.921875 C 25.394531 -50.453125 23.140625 -72.945312 23.140625 -103.40625 C 23.140625 -133.664062 25.441406 -156.109375 30.046875 -170.734375 C 34.660156 -185.367188 43.03125 -195.441406 55.15625 -200.953125 C 67.28125 -206.460938 85.867188 -209.21875 110.921875 -209.21875 C 120.742188 -209.21875 131.71875 -208.613281 143.84375 -207.40625 C 155.96875 -206.207031 166.640625 -204.8125 175.859375 -203.21875 L 175.859375 -180.359375 C 153.015625 -183.566406 135.578125 -185.171875 123.546875 -185.171875 C 99.703125 -185.171875 83.117188 -183.867188 73.796875 -181.265625 C 64.484375 -178.660156 57.972656 -171.847656 54.265625 -160.828125 C 50.554688 -149.804688 48.703125 -130.664062 48.703125 -103.40625 C 48.703125 -78.15625 50.101562 -60.019531 52.90625 -49 C 55.707031 -37.976562 61.316406 -30.5625 69.734375 -26.75 C 78.148438 -22.945312 91.976562 -21.046875 111.21875 -21.046875 C 117.238281 -21.046875 124.253906 -21.296875 132.265625 -21.796875 C 140.285156 -22.296875 146.800781 -22.847656 151.8125 -23.453125 L 151.8125 -88.375 Z M 105.21875 -88.375 "/></g></g></g><g fill="#12222e" fill-opacity="1"><g transform="translate(605.232878, 279.948162)"><g><path d="M 30.0625 0 L 30.0625 -206.8125 L 164.734375 -206.8125 L 164.734375 -182.765625 L 55.90625 -182.765625 L 55.90625 -116.328125 L 150.296875 -116.328125 L 150.296875 -92.28125 L 55.90625 -92.28125 L 55.90625 -24.046875 L 164.734375 -24.046875 L 164.734375 0 Z M 30.0625 0 "/></g></g></g><g fill="#12222e" fill-opacity="1"><g transform="translate(786.7935, 279.948162)"><g><path d="M 155.71875 -1.5 C 149.5 -0.300781 141.726562 0.644531 132.40625 1.34375 C 123.09375 2.050781 114.429688 2.40625 106.421875 2.40625 C 81.566406 2.40625 63.425781 -0.296875 52 -5.703125 C 40.582031 -11.117188 32.914062 -20.988281 29 -35.3125 C 25.09375 -49.644531 23.140625 -72.34375 23.140625 -103.40625 C 23.140625 -134.269531 25.09375 -156.914062 29 -171.34375 C 32.914062 -185.769531 40.582031 -195.6875 52 -201.09375 C 63.425781 -206.507812 81.566406 -209.21875 106.421875 -209.21875 C 114.628906 -209.21875 123.242188 -208.816406 132.265625 -208.015625 C 141.285156 -207.210938 148.703125 -206.113281 154.515625 -204.71875 L 154.515625 -182.171875 C 139.484375 -184.171875 125.65625 -185.171875 113.03125 -185.171875 C 91.988281 -185.171875 77.304688 -183.566406 68.984375 -180.359375 C 60.671875 -177.160156 55.210938 -170.25 52.609375 -159.625 C 50.003906 -149 48.703125 -130.257812 48.703125 -103.40625 C 48.703125 -76.550781 50.003906 -57.8125 52.609375 -47.1875 C 55.210938 -36.570312 60.671875 -29.660156 68.984375 -26.453125 C 77.304688 -23.242188 91.988281 -21.640625 113.03125 -21.640625 C 128.457031 -21.640625 142.6875 -22.644531 155.71875 -24.65625 Z M 155.71875 -1.5 "/></g></g></g><g fill="#12222e" fill-opacity="1"><g transform="translate(959.6368, 279.948162)"><g><path d="M 170.453125 0 L 149.109375 -55.015625 L 55.90625 -55.015625 L 34.5625 0 L 8.421875 0 L 86.578125 -206.8125 L 119.046875 -206.8125 L 197.203125 0 Z M 103.109375 -178.859375 L 101.609375 -178.859375 L 63.734375 -79.359375 L 140.984375 -79.359375 Z M 103.109375 -178.859375 "/></g></g></g><g fill="#12222e" fill-opacity="1"><g transform="translate(1165.24524, 279.948162)"><g><path d="M 30.0625 0 L 30.0625 -206.8125 L 55.90625 -206.8125 L 55.90625 -24.953125 L 152.40625 -24.953125 L 152.40625 0 Z M 30.0625 0 "/></g></g></g><g fill="#12222e" fill-opacity="1"><g transform="translate(1326.966357, 279.948162)"><g><path d="M 155.71875 -1.5 C 149.5 -0.300781 141.726562 0.644531 132.40625 1.34375 C 123.09375 2.050781 114.429688 2.40625 106.421875 2.40625 C 81.566406 2.40625 63.425781 -0.296875 52 -5.703125 C 40.582031 -11.117188 32.914062 -20.988281 29 -35.3125 C 25.09375 -49.644531 23.140625 -72.34375 23.140625 -103.40625 C 23.140625 -134.269531 25.09375 -156.914062 29 -171.34375 C 32.914062 -185.769531 40.582031 -195.6875 52 -201.09375 C 63.425781 -206.507812 81.566406 -209.21875 106.421875 -209.21875 C 114.628906 -209.21875 123.242188 -208.816406 132.265625 -208.015625 C 141.285156 -207.210938 148.703125 -206.113281 154.515625 -204.71875 L 154.515625 -182.171875 C 139.484375 -184.171875 125.65625 -185.171875 113.03125 -185.171875 C 91.988281 -185.171875 77.304688 -183.566406 68.984375 -180.359375 C 60.671875 -177.160156 55.210938 -170.25 52.609375 -159.625 C 50.003906 -149 48.703125 -130.257812 48.703125 -103.40625 C 48.703125 -76.550781 50.003906 -57.8125 52.609375 -47.1875 C 55.210938 -36.570312 60.671875 -29.660156 68.984375 -26.453125 C 77.304688 -23.242188 91.988281 -21.640625 113.03125 -21.640625 C 128.457031 -21.640625 142.6875 -22.644531 155.71875 -24.65625 Z M 155.71875 -1.5 "/></g></g></g></g></g></g><g transform="matrix(1, 0, 0, 1, 361, 348)"><g clip-path="url(#c24e4f5df5)"><g fill="#12222e" fill-opacity="1"><g transform="translate(0.213427, 58.182794)"><g><path d="M 5.421875 0 L 5.421875 -35.15625 L 27.796875 -35.15625 L 27.796875 -32.09375 L 8.6875 -32.09375 L 8.6875 -19.3125 L 25.390625 -19.3125 L 25.390625 -16.25 L 8.6875 -16.25 L 8.6875 -3.0625 L 27.796875 -3.0625 L 27.796875 0 Z M 5.421875 0 "/></g></g></g><g fill="#12222e" fill-opacity="1"><g transform="translate(36.485484, 58.182794)"><g><path d="M 28.921875 0 L 8.78125 -28.96875 L 8.578125 -28.96875 L 8.578125 0 L 5.421875 0 L 5.421875 -35.15625 L 8.734375 -35.15625 L 28.71875 -6.484375 L 28.921875 -6.484375 L 28.921875 -35.15625 L 32.03125 -35.15625 L 32.03125 0 Z M 28.921875 0 "/></g></g></g><g fill="#12222e" fill-opacity="1"><g transform="translate(79.551833, 58.182794)"><g><path d="M 17.9375 -15.484375 L 17.9375 -18.5 L 29.890625 -18.5 L 29.890625 -0.5625 C 28.222656 -0.289062 26.359375 -0.0585938 24.296875 0.125 C 22.234375 0.3125 20.4375 0.40625 18.90625 0.40625 C 14.613281 0.40625 11.460938 -0.0351562 9.453125 -0.921875 C 7.441406 -1.804688 6.0625 -3.472656 5.3125 -5.921875 C 4.5625 -8.378906 4.1875 -12.265625 4.1875 -17.578125 C 4.1875 -22.859375 4.566406 -26.738281 5.328125 -29.21875 C 6.097656 -31.707031 7.488281 -33.382812 9.5 -34.25 C 11.507812 -35.125 14.644531 -35.5625 18.90625 -35.5625 C 20.601562 -35.5625 22.472656 -35.46875 24.515625 -35.28125 C 26.566406 -35.09375 28.304688 -34.863281 29.734375 -34.59375 L 29.734375 -31.671875 C 26.054688 -32.222656 23.0625 -32.5 20.75 -32.5 C 16.550781 -32.5 13.625 -32.257812 11.96875 -31.78125 C 10.320312 -31.300781 9.15625 -30.054688 8.46875 -28.046875 C 7.789062 -26.035156 7.453125 -22.546875 7.453125 -17.578125 C 7.453125 -12.972656 7.707031 -9.675781 8.21875 -7.6875 C 8.738281 -5.695312 9.765625 -4.351562 11.296875 -3.65625 C 12.828125 -2.957031 15.363281 -2.609375 18.90625 -2.609375 C 20 -2.609375 21.328125 -2.65625 22.890625 -2.75 C 24.453125 -2.851562 25.726562 -2.972656 26.71875 -3.109375 L 26.71875 -15.484375 Z M 17.9375 -15.484375 "/></g></g></g><g fill="#12222e" fill-opacity="1"><g transform="translate(119.808506, 58.182794)"><g><path d="M 5.421875 0 L 5.421875 -35.15625 L 27.796875 -35.15625 L 27.796875 -32.09375 L 8.6875 -32.09375 L 8.6875 -19.3125 L 25.390625 -19.3125 L 25.390625 -16.25 L 8.6875 -16.25 L 8.6875 -3.0625 L 27.796875 -3.0625 L 27.796875 0 Z M 5.421875 0 "/></g></g></g><g fill="#12222e" fill-opacity="1"><g transform="translate(156.080563, 58.182794)"><g><path d="M 28.921875 0 L 8.78125 -28.96875 L 8.578125 -28.96875 L 8.578125 0 L 5.421875 0 L 5.421875 -35.15625 L 8.734375 -35.15625 L 28.71875 -6.484375 L 28.921875 -6.484375 L 28.921875 -35.15625 L 32.03125 -35.15625 L 32.03125 0 Z M 28.921875 0 "/></g></g></g><g fill="#12222e" fill-opacity="1"><g transform="translate(199.146912, 58.182794)"><g><path d="M 28.765625 0 L 28.765625 -16.203125 L 8.6875 -16.203125 L 8.6875 0 L 5.421875 0 L 5.421875 -35.15625 L 8.6875 -35.15625 L 8.6875 -19.3125 L 28.765625 -19.3125 L 28.765625 -35.15625 L 32.03125 -35.15625 L 32.03125 0 Z M 28.765625 0 "/></g></g></g><g fill="#12222e" fill-opacity="1"><g transform="translate(242.213273, 58.182794)"><g><path d="M 29.734375 0 L 25.703125 -10.21875 L 9.09375 -10.21875 L 5.0625 0 L 1.6875 0 L 15.484375 -35.15625 L 19.421875 -35.15625 L 33.21875 0 Z M 17.53125 -31.328125 L 17.265625 -31.328125 L 10.171875 -13.28125 L 24.625 -13.28125 Z M 17.53125 -31.328125 "/></g></g></g><g fill="#12222e" fill-opacity="1"><g transform="translate(282.674263, 58.182794)"><g><path d="M 27.6875 0 L 22.015625 -14.359375 L 8.6875 -14.359375 L 8.6875 0 L 5.421875 0 L 5.421875 -35.15625 L 21.359375 -35.15625 C 24.117188 -35.15625 26.175781 -34.703125 27.53125 -33.796875 C 28.894531 -32.890625 29.78125 -31.710938 30.1875 -30.265625 C 30.601562 -28.828125 30.8125 -26.984375 30.8125 -24.734375 C 30.8125 -22.210938 30.453125 -20.097656 29.734375 -18.390625 C 29.015625 -16.691406 27.5 -15.535156 25.1875 -14.921875 L 31.21875 0 Z M 19.921875 -17.421875 C 22.171875 -17.421875 23.835938 -17.691406 24.921875 -18.234375 C 26.015625 -18.785156 26.722656 -19.5625 27.046875 -20.5625 C 27.378906 -21.570312 27.546875 -22.960938 27.546875 -24.734375 C 27.546875 -26.566406 27.40625 -27.976562 27.125 -28.96875 C 26.851562 -29.957031 26.207031 -30.722656 25.1875 -31.265625 C 24.164062 -31.816406 22.582031 -32.09375 20.4375 -32.09375 L 8.6875 -32.09375 L 8.6875 -17.421875 Z M 19.921875 -17.421875 "/></g></g></g><g fill="#12222e" fill-opacity="1"><g transform="translate(323.084227, 58.182794)"><g><path d="M 5.421875 0 L 5.421875 -35.15625 L 8.6875 -35.15625 L 8.6875 0 Z M 5.421875 0 "/></g></g></g><g fill="#12222e" fill-opacity="1"><g transform="translate(342.804745, 58.182794)"><g><path d="M 29.734375 0 L 25.703125 -10.21875 L 9.09375 -10.21875 L 5.0625 0 L 1.6875 0 L 15.484375 -35.15625 L 19.421875 -35.15625 L 33.21875 0 Z M 17.53125 -31.328125 L 17.265625 -31.328125 L 10.171875 -13.28125 L 24.625 -13.28125 Z M 17.53125 -31.328125 "/></g></g></g><g fill="#12222e" fill-opacity="1"><g transform="translate(383.26576, 58.182794)"><g/></g></g><g fill="#12222e" fill-opacity="1"><g transform="translate(400.585299, 58.182794)"><g><path d="M 5.421875 0 L 5.421875 -35.15625 L 27.796875 -35.15625 L 27.796875 -32.09375 L 8.6875 -32.09375 L 8.6875 -19.3125 L 25.390625 -19.3125 L 25.390625 -16.25 L 8.6875 -16.25 L 8.6875 -3.0625 L 27.796875 -3.0625 L 27.796875 0 Z M 5.421875 0 "/></g></g></g><g fill="#12222e" fill-opacity="1"><g transform="translate(436.857369, 58.182794)"><g><path d="M 16.859375 0.40625 C 14.921875 0.40625 12.828125 0.34375 10.578125 0.21875 C 8.328125 0.101562 6.382812 -0.0507812 4.75 -0.25 L 4.75 -3.328125 C 6.519531 -3.148438 8.476562 -2.992188 10.625 -2.859375 C 12.769531 -2.722656 14.539062 -2.65625 15.9375 -2.65625 C 17.8125 -2.65625 19.300781 -2.726562 20.40625 -2.875 C 21.519531 -3.03125 22.484375 -3.347656 23.296875 -3.828125 C 24.078125 -4.273438 24.59375 -4.96875 24.84375 -5.90625 C 25.101562 -6.84375 25.234375 -8.078125 25.234375 -9.609375 C 25.234375 -11.515625 25.140625 -12.84375 24.953125 -13.59375 C 24.765625 -14.34375 24.304688 -14.878906 23.578125 -15.203125 C 22.847656 -15.523438 21.5625 -15.789062 19.71875 -16 L 10.78125 -16.96875 C 8.664062 -17.164062 7.101562 -17.640625 6.09375 -18.390625 C 5.09375 -19.140625 4.445312 -20.082031 4.15625 -21.21875 C 3.875 -22.363281 3.734375 -23.941406 3.734375 -25.953125 C 3.734375 -28.640625 4.179688 -30.671875 5.078125 -32.046875 C 5.984375 -33.429688 7.304688 -34.363281 9.046875 -34.84375 C 10.785156 -35.320312 13.132812 -35.5625 16.09375 -35.5625 C 18.070312 -35.5625 20.054688 -35.492188 22.046875 -35.359375 C 24.035156 -35.222656 25.609375 -35.035156 26.765625 -34.796875 L 26.765625 -31.875 C 25.410156 -32.050781 23.773438 -32.195312 21.859375 -32.3125 C 19.953125 -32.4375 18.203125 -32.5 16.609375 -32.5 C 14.597656 -32.5 12.976562 -32.394531 11.75 -32.1875 C 10.519531 -31.976562 9.550781 -31.65625 8.84375 -31.21875 C 8.09375 -30.738281 7.597656 -30.085938 7.359375 -29.265625 C 7.117188 -28.453125 7 -27.347656 7 -25.953125 C 7 -24.421875 7.109375 -23.285156 7.328125 -22.546875 C 7.554688 -21.816406 7.984375 -21.289062 8.609375 -20.96875 C 9.234375 -20.644531 10.25 -20.398438 11.65625 -20.234375 L 20.328125 -19.3125 C 22.648438 -19.070312 24.378906 -18.710938 25.515625 -18.234375 C 26.660156 -17.765625 27.472656 -16.847656 27.953125 -15.484375 C 28.328125 -14.359375 28.515625 -12.484375 28.515625 -9.859375 C 28.515625 -6.796875 28.050781 -4.519531 27.125 -3.03125 C 26.207031 -1.550781 24.957031 -0.609375 23.375 -0.203125 C 21.789062 0.199219 19.617188 0.40625 16.859375 0.40625 Z M 16.859375 0.40625 "/></g></g></g><g fill="#12222e" fill-opacity="1"><g transform="translate(474.661948, 58.182794)"><g><path d="M 13.1875 0 L 13.1875 -31.984375 L 1.734375 -31.984375 L 1.734375 -35.15625 L 27.953125 -35.15625 L 27.953125 -31.984375 L 16.5 -31.984375 L 16.5 0 Z M 13.1875 0 "/></g></g></g><g fill="#12222e" fill-opacity="1"><g transform="translate(509.91232, 58.182794)"><g><path d="M 27.6875 0 L 22.015625 -14.359375 L 8.6875 -14.359375 L 8.6875 0 L 5.421875 0 L 5.421875 -35.15625 L 21.359375 -35.15625 C 24.117188 -35.15625 26.175781 -34.703125 27.53125 -33.796875 C 28.894531 -32.890625 29.78125 -31.710938 30.1875 -30.265625 C 30.601562 -28.828125 30.8125 -26.984375 30.8125 -24.734375 C 30.8125 -22.210938 30.453125 -20.097656 29.734375 -18.390625 C 29.015625 -16.691406 27.5 -15.535156 25.1875 -14.921875 L 31.21875 0 Z M 19.921875 -17.421875 C 22.171875 -17.421875 23.835938 -17.691406 24.921875 -18.234375 C 26.015625 -18.785156 26.722656 -19.5625 27.046875 -20.5625 C 27.378906 -21.570312 27.546875 -22.960938 27.546875 -24.734375 C 27.546875 -26.566406 27.40625 -27.976562 27.125 -28.96875 C 26.851562 -29.957031 26.207031 -30.722656 25.1875 -31.265625 C 24.164062 -31.816406 22.582031 -32.09375 20.4375 -32.09375 L 8.6875 -32.09375 L 8.6875 -17.421875 Z M 19.921875 -17.421875 "/></g></g></g><g fill="#12222e" fill-opacity="1"><g transform="translate(550.322234, 58.182794)"><g><path d="M 31.375 -35.15625 L 31.375 -15.21875 C 31.375 -10.695312 31.09375 -7.382812 30.53125 -5.28125 C 29.96875 -3.1875 28.78125 -1.710938 26.96875 -0.859375 C 25.164062 -0.015625 22.238281 0.40625 18.1875 0.40625 C 14.132812 0.40625 11.195312 -0.0234375 9.375 -0.890625 C 7.550781 -1.765625 6.359375 -3.238281 5.796875 -5.3125 C 5.234375 -7.394531 4.953125 -10.695312 4.953125 -15.21875 L 4.953125 -35.15625 L 8.21875 -35.15625 L 8.21875 -13.59375 C 8.21875 -10.289062 8.414062 -7.929688 8.8125 -6.515625 C 9.207031 -5.097656 10.078125 -4.097656 11.421875 -3.515625 C 12.765625 -2.941406 15.019531 -2.65625 18.1875 -2.65625 C 21.351562 -2.65625 23.609375 -2.941406 24.953125 -3.515625 C 26.304688 -4.097656 27.171875 -5.097656 27.546875 -6.515625 C 27.921875 -7.929688 28.109375 -10.289062 28.109375 -13.59375 L 28.109375 -35.15625 Z M 31.375 -35.15625 "/></g></g></g><g fill="#12222e" fill-opacity="1"><g transform="translate(592.264732, 58.182794)"><g><path d="M 13.1875 0 L 13.1875 -31.984375 L 1.734375 -31.984375 L 1.734375 -35.15625 L 27.953125 -35.15625 L 27.953125 -31.984375 L 16.5 -31.984375 L 16.5 0 Z M 13.1875 0 "/></g></g></g><g fill="#12222e" fill-opacity="1"><g transform="translate(627.515104, 58.182794)"><g><path d="M 31.375 -35.15625 L 31.375 -15.21875 C 31.375 -10.695312 31.09375 -7.382812 30.53125 -5.28125 C 29.96875 -3.1875 28.78125 -1.710938 26.96875 -0.859375 C 25.164062 -0.015625 22.238281 0.40625 18.1875 0.40625 C 14.132812 0.40625 11.195312 -0.0234375 9.375 -0.890625 C 7.550781 -1.765625 6.359375 -3.238281 5.796875 -5.3125 C 5.234375 -7.394531 4.953125 -10.695312 4.953125 -15.21875 L 4.953125 -35.15625 L 8.21875 -35.15625 L 8.21875 -13.59375 C 8.21875 -10.289062 8.414062 -7.929688 8.8125 -6.515625 C 9.207031 -5.097656 10.078125 -4.097656 11.421875 -3.515625 C 12.765625 -2.941406 15.019531 -2.65625 18.1875 -2.65625 C 21.351562 -2.65625 23.609375 -2.941406 24.953125 -3.515625 C 26.304688 -4.097656 27.171875 -5.097656 27.546875 -6.515625 C 27.921875 -7.929688 28.109375 -10.289062 28.109375 -13.59375 L 28.109375 -35.15625 Z M 31.375 -35.15625 "/></g></g></g><g fill="#12222e" fill-opacity="1"><g transform="translate(669.457602, 58.182794)"><g><path d="M 27.6875 0 L 22.015625 -14.359375 L 8.6875 -14.359375 L 8.6875 0 L 5.421875 0 L 5.421875 -35.15625 L 21.359375 -35.15625 C 24.117188 -35.15625 26.175781 -34.703125 27.53125 -33.796875 C 28.894531 -32.890625 29.78125 -31.710938 30.1875 -30.265625 C 30.601562 -28.828125 30.8125 -26.984375 30.8125 -24.734375 C 30.8125 -22.210938 30.453125 -20.097656 29.734375 -18.390625 C 29.015625 -16.691406 27.5 -15.535156 25.1875 -14.921875 L 31.21875 0 Z M 19.921875 -17.421875 C 22.171875 -17.421875 23.835938 -17.691406 24.921875 -18.234375 C 26.015625 -18.785156 26.722656 -19.5625 27.046875 -20.5625 C 27.378906 -21.570312 27.546875 -22.960938 27.546875 -24.734375 C 27.546875 -26.566406 27.40625 -27.976562 27.125 -28.96875 C 26.851562 -29.957031 26.207031 -30.722656 25.1875 -31.265625 C 24.164062 -31.816406 22.582031 -32.09375 20.4375 -32.09375 L 8.6875 -32.09375 L 8.6875 -17.421875 Z M 19.921875 -17.421875 "/></g></g></g><g fill="#12222e" fill-opacity="1"><g transform="translate(709.867516, 58.182794)"><g><path d="M 29.734375 0 L 25.703125 -10.21875 L 9.09375 -10.21875 L 5.0625 0 L 1.6875 0 L 15.484375 -35.15625 L 19.421875 -35.15625 L 33.21875 0 Z M 17.53125 -31.328125 L 17.265625 -31.328125 L 10.171875 -13.28125 L 24.625 -13.28125 Z M 17.53125 -31.328125 "/></g></g></g><g fill="#12222e" fill-opacity="1"><g transform="translate(750.328556, 58.182794)"><g><path d="M 5.421875 0 L 5.421875 -35.15625 L 8.6875 -35.15625 L 8.6875 -3.171875 L 25.75 -3.171875 L 25.75 0 Z M 5.421875 0 "/></g></g></g></g></g></svg>